<svg xmlns="http://www.w3.org/2000/svg" width="110" height="22" viewBox="0 0 110 22">
    <title>selectel_logo_web</title>
    <g fill="none" fill-rule="evenodd">
        <path d="M69.253 5.5c-.676 0-1.295.034-1.838.101-2.244.278-3.971 1.545-4.994 3.665-.932 1.932-1.004 3.923-1.004 4.487 0 .561.072 2.54 1.007 4.469 1.022 2.11 2.747 3.383 4.989 3.683.474.063 1.037.095 1.672.095 1.944 0 3.998-.301 4.018-.305l.23-.034V18.15s-2.25.158-3.381.158c-1.405 0-2.012-.093-2.274-.172-1.583-.475-1.742-2.967-1.737-4.015v-.733c-.005-1.074.152-3.615 1.727-4.013.46-.117 1.274-.178 2.354-.178 1.127 0 3.311.16 3.311.16V5.829l-.228-.036c-.018-.002-1.886-.292-3.852-.292M104.5 0h4.583v22H104.5V0zM30.25 11.917h-6.417c.166-1.339.489-2.75 3.167-2.75 3.1 0 3.172 1.326 3.242 2.608l.008.142zM27.464 5.5h-.213c-1.779 0-4.234.357-5.831 2.056-1.38 1.44-2.17 3.593-2.17 5.91v.59c0 .387.056 2.414 1.17 4.373 1.158 2.034 3.066 3.246 5.52 3.504a12.9 12.9 0 0 0 1.35.067c2.942 0 5.839-.843 5.96-.878l.204-.06v-3.11s-3.82.403-5.081.441c-3.855.117-4.308-1.726-4.355-3.176h10.815V12.44c0-2.284-.62-3.976-1.897-5.171C31.4 5.807 29.112 5.5 27.464 5.5zM55 11.917h-6.417c.166-1.339.489-2.75 3.167-2.75 3.1 0 3.172 1.326 3.242 2.608l.008.142zM52.214 5.5H52c-1.779 0-4.234.357-5.831 2.056C44.79 8.996 44 11.15 44 13.466v.59c0 .387.057 2.414 1.17 4.373 1.158 2.034 3.066 3.246 5.52 3.504.421.045.876.067 1.35.067 2.942 0 5.839-.843 5.96-.878l.204-.06v-3.11s-3.82.403-5.082.441c-3.854.117-4.307-1.726-4.354-3.176h10.815V12.44c0-2.284-.62-3.976-1.897-5.171C56.15 5.807 53.862 5.5 52.214 5.5zM97.167 11.917H90.75c.166-1.339.489-2.75 3.167-2.75 3.1 0 3.172 1.326 3.241 2.608.003.048.005.095.009.142zM94.38 5.5h-.213c-1.778 0-4.233.357-5.83 2.056-1.38 1.44-2.17 3.593-2.17 5.91v.59c0 .387.056 2.414 1.17 4.373 1.158 2.034 3.066 3.246 5.519 3.504.422.045.876.067 1.35.067 2.943 0 5.84-.843 5.962-.878l.202-.06v-3.11s-3.82.403-5.081.441c-3.855.117-4.308-1.726-4.354-3.176h10.815V12.44c0-2.284-.621-3.976-1.897-5.171C98.316 5.807 96.029 5.5 94.38 5.5zM37.583 0h4.584v22h-4.584V0z"
              fill="#343433"/>
        <path d="M81.583 9.167h3.667V5.5h-3.667V0H77v15.583h4.583V9.167M11.045 13.508c.422.17.737.431.935.777l.04.382h4.48v-.555c-.408-3.356-2.703-4.196-4.922-5.007-.745-.273-2.074-.725-3.044-1.056-.537-.183-.962-.328-1.073-.369-1.283-.476-2.334-.975-2.199-2.27.115-1.096 1.03-1.546 3.157-1.553 2.151.004 6.496.367 6.54.371l.292.025V.85l-.203-.053C15.018.789 10.91.016 8.363 0h-.105c-1.85 0-3.386.318-4.564.945-1.843.981-2.777 2.68-2.777 5.05 0 2.604 1.673 4.34 5.595 5.802 1.048.39 3.905 1.46 4.533 1.711z"
              fill="#BF3936"/>
        <path d="M8.582 17.45h-.17c-2.268 0-7.143-.558-7.192-.563l-.303-.035v4.118l.208.058c.035.01 4.1.972 7.074.972 5.006 0 7.881-1.679 8.301-5.5l-4.582.082c-.505 1.177-1.915.867-3.336.867zM81.44 17.417H77c.037 3.318 1.836 4.384 4.04 4.564.161.013.34.019.53.019 1.356 0 3.68-.408 3.68-.408V18.44h-2.324c-1.38 0-1.428-.078-1.485-1.024z"
              fill="#343433"/>
    </g>
</svg>